<svg width="625" height="800" viewBox="0 0 625 800" fill="none" xmlns="http://www.w3.org/2000/svg">
<path d="M357.528 45.5411C355.895 70.7266 338.092 90.0565 312.122 89.9012C286.444 89.7459 267.774 70.6261 267.473 45.4771C267.172 19.707 286.243 0.26749 311.948 0.00257215C337.179 -0.253211 356.497 18.5925 357.528 45.5411Z" fill="#3E9970"/>
<path d="M205.031 91.3629C203.598 117.736 185.385 136.774 159.625 136.664C133.327 136.545 115.077 116.804 114.949 91.8654C114.821 66.5154 134.029 46.7653 159.826 46.7928C185.969 46.811 203.617 66.8169 205.031 91.3629Z" fill="#3E9970"/>
<path d="M460.595 46.6462C485.041 48.2632 504.942 65.2179 504.851 92.0934C504.769 118.375 485.214 136.828 460.139 136.81C433.211 136.791 415.599 116.502 415.143 92.8059C414.65 67.0449 434.379 47.5689 460.595 46.6462Z" fill="#3E9970"/>
<path d="M16.361 217.473C17.5928 191.913 35.8246 171.733 62.7709 172.345C87.4358 172.902 106.471 191.83 106.425 216.742C106.37 244.558 85.7203 262.262 61.4842 262.134C35.2041 261.979 17.7571 242.192 16.361 217.473Z" fill="#3E9970"/>
<path d="M608.639 216.405C607.572 243.901 587.971 262.345 563.27 262.117C537.628 261.879 518.813 243.015 518.566 217.336C518.338 192.991 536.734 172.017 564.356 172.328C587.843 172.593 606.896 190.333 608.639 216.405Z" fill="#3E9970"/>
<path d="M0 367.909C1.47825 343.61 17.8668 323.65 44.5849 323.184C69.989 322.745 89.6716 341.454 90.064 367.644C90.4473 392.976 71.6953 412.525 45.9993 413.028C20.6864 413.53 1.25925 394.657 0 367.909Z" fill="#3E9970"/>
<path d="M579.33 322.874C605.4 324.025 624.526 341.4 624.991 367.435C625.438 392.538 607.435 412.306 580.753 413.019C557.037 413.649 535.174 395.954 535.356 367.243C535.52 343.026 554.044 324.6 579.33 322.874Z" fill="#3E9970"/>
<path d="M348.603 487.159C348.603 473.484 348.594 459.809 348.594 446.143C348.594 434.97 348.603 434.989 359.425 432.093C401.966 420.71 444.498 409.319 487.039 397.909C501.858 393.945 513.775 377.657 512.881 362.538C511.448 338.303 489.001 323.111 467.584 328.957C433.009 338.385 398.371 347.575 363.76 356.838C362.573 357.157 361.332 357.231 359.069 357.578C360.31 355.879 360.739 355.102 361.351 354.499C378.633 337.188 395.953 319.923 413.235 302.612C429.998 285.831 446.87 269.168 463.396 252.168C471.928 243.398 474.839 232.427 472.229 220.533C469.291 207.223 461.169 197.978 447.984 193.877C434.25 189.61 422.032 192.917 411.912 202.911C391.783 222.798 371.881 242.923 351.87 262.938C351.103 263.705 350.182 264.326 348.849 265.395C348.74 263.459 348.612 262.271 348.612 261.084C348.594 233.523 348.63 205.962 348.557 178.402C348.548 174.464 348.265 170.509 347.782 166.599C345.19 145.835 323.682 131.493 303.544 137.02C287.447 141.441 276.47 155.874 276.442 172.911C276.387 201.842 276.424 230.764 276.406 259.695C276.406 261.257 276.269 262.81 276.159 265.267C273.568 262.874 271.734 261.294 270.027 259.585C251.129 240.667 232.359 221.611 213.324 202.829C198.697 188.414 176.468 188.332 162.58 202.783C148.966 216.952 148.281 238.812 163.109 253.574C194.682 285.036 226.172 316.579 257.681 348.105C260.51 350.927 263.22 353.851 265.994 356.737C264.178 357.495 262.846 357.523 261.614 357.194C228.034 348.178 194.454 339.198 160.919 330.035C149.029 326.783 138.517 326.865 127.412 334.493C116.097 342.267 111.398 352.535 111.58 364.767C111.781 378.342 118.67 389.35 131.345 395.315C137.459 398.192 144.221 399.745 150.8 401.518C191.105 412.379 231.428 423.168 271.779 433.847C275.375 434.797 276.561 436.35 276.515 440.104C276.333 455.78 276.387 471.474 276.406 487.159H0.00860596C0.00860596 659.941 139.914 800 312.504 800C485.086 800 625 659.941 625 487.159H348.603Z" fill="#3E9970"/>
</svg>
